<svg class="header-nav-subicon_icon" xmlns="http://www.w3.org/2000/svg" fill="currentColor">
<path fill-rule="evenodd" clip-rule="evenodd" d="M5.46447 15.4595C4.52678 14.5218 4 13.25 4 11.9239L4 8.33813L9.54049 13.8787C10.4782 14.8163 11.0049 16.0881 11.0049 17.4142L11.0049 20.9999L5.46447 15.4595ZM18.5356 15.4595C19.4733 14.5218 20.0001 13.25 20.0001 11.9239L20.0001 8.33813L14.4596 13.8787C13.5219 14.8163 12.9951 16.0881 12.9951 17.4142L12.9951 20.9999L18.5356 15.4595Z" fill="white"></path>
      <path d="M20.0001 11.9239C20.0001 13.25 19.4733 14.5218 18.5356 15.4595L12.9951 20.9999L12.9951 17.4142C12.9951 16.0881 13.5219 14.8163 14.4596 13.8787L20.0001 8.33813L20.0001 11.9239Z" fill="#F0B90B"></path>
      <path d="M13.075 3.4448L12.0019 4.5179L10.9288 3.4448C9.68727 2.20331 7.67441 2.20335 6.43296 3.44488C5.1916 4.68634 5.19162 6.69905 6.43301 7.94048L12.0019 13.5096L17.5708 7.94066C18.8123 6.69916 18.8123 4.68629 17.5708 3.4448C16.3293 2.2033 14.3165 2.2033 13.075 3.4448Z" fill="white"></path>
</svg>