<svg class="header-nav-subicon_icon" xmlns="http://www.w3.org/2000/svg" fill="white">
<path d="M5.873 4.83108L9.99998 2.5L14.127 4.83108L12.6455 5.64189L9.99998 4.22297L7.35448 5.64189L5.873 4.83108ZM14.127 7.66892L12.6455 6.85811L9.99998 8.27703L7.35448 6.85811L5.873 7.66892V9.39189L8.5185 10.8108V13.75L9.99998 14.5608L11.4815 13.75V10.8108L14.127 9.39189V7.66892ZM14.127 12.3311V10.6081L12.6455 11.4189V13.1419L14.127 12.3311ZM15.1852 12.8378L12.5397 14.2568V15.9797L16.6666 13.6486V9.08784L15.1852 10V12.8378ZM13.7037 6.25L15.1852 7.06081V8.78378L16.6666 7.97297V6.25L15.1852 5.43919L13.7037 6.25ZM8.5185 14.9662V16.6892L9.99998 17.5L11.4815 16.6892V14.9662L9.99998 15.777L8.5185 14.9662ZM5.873 12.3311L7.35448 13.1419V11.4189L5.873 10.6081V12.3311ZM8.5185 6.25L9.99998 7.06081L11.4815 6.25L9.99998 5.43919L8.5185 6.25ZM4.8148 7.06081L6.29628 6.25L4.8148 5.43919L3.33331 6.25V7.97297L4.8148 8.78378V7.06081ZM4.8148 10L3.33331 9.18919V13.75L7.4603 16.0811V14.3581L4.8148 12.9392V10Z" fill="white"></path>
</svg>