<svg class="header-nav-subicon_icon" xmlns="http://www.w3.org/2000/svg" fill="white">
  <path d="M14 3H21V10L14 3Z" fill="currentColor"></path>
  <path fill-rule="evenodd" clip-rule="evenodd" d="M12 6C8.68629 6 6 8.68629 6 12C6 15.3137 8.68629 18 12 18C15.3137 18 18 15.3137 18 12C18 8.68629 15.3137 6 12 6ZM12 14.4L14.4 12L12 9.6L9.6 12L12 14.4Z" fill="white"></path>
  <path d="M3 21H10L3 14V21Z" fill="white"></path>
  <path d="M3 21H10L3 14V21Z" fill="#F0B90B"></path>
  <path d="M14 3H21V10L14 3Z" fill="#F0B90B"></path>
</svg>