<svg class="header-nav-subicon_icon" xmlns="http://www.w3.org/2000/svg" fill="white">
<path fill-rule="evenodd" clip-rule="evenodd" d="M18.4963 15.7393L5.5001 15.7394L5.5 22.7378L18.4962 22.7377L18.4963 15.7393ZM9.11646 19.4231L11.2126 18.4244L11.923 16.6392L12.7775 18.4329L14.8426 19.2546L12.8115 20.2223L12.0888 22.0385L11.2466 20.2707L9.11646 19.4231Z" fill="#F0B90B"></path>
      <path fill-rule="evenodd" clip-rule="evenodd" d="M20 9.26172C20 8.92306 19.979 8.58931 19.9381 8.26172C19.446 4.31541 16.0796 1.26172 12 1.26172C7.92038 1.26172 4.55399 4.31541 4.06189 8.26172C4.02104 8.58931 4 8.92306 4 9.26172V11.2617L6.9941 14.2554H11.2367L8.24309 11.2617H15.7573L12.7637 14.2554H17.0063L20 11.2617V9.26172ZM10.4589 4.54153C8.41223 5.21895 7.1827 7.1119 7.10002 8.26172H10.4589V4.54153ZM13.5374 8.26172H16.9C16.5394 6.48553 15.2373 5.05125 13.5374 4.50251V8.26172Z" fill="white"></path>
</svg>