<svg class="header-nav-subicon_icon" xmlns="http://www.w3.org/2000/svg" fill="white">
<path fill-rule="evenodd" clip-rule="evenodd" d="M7.5 2.5H21.5V14.5H18.5V5.5H7.5V2.5Z" fill="#F0B90B"></path>
      <path fill-rule="evenodd" clip-rule="evenodd" d="M16.5 7.5H2.5V18.5H5.5V21.5L8.5 18.5H16.5V7.5ZM6.59088 10.4499C9.60344 10.4499 12.0456 12.892 12.0456 15.9046L13.5 15.9046C13.5 12.0888 10.4067 8.99551 6.59088 8.99551V10.4499ZM9.1361 15.9046C9.1361 14.4989 7.99657 13.3594 6.59088 13.3594V11.905C8.79981 11.905 10.5905 13.6957 10.5905 15.9046L9.1361 15.9046ZM7.68161 15.9047C7.68161 16.5071 7.19324 16.9955 6.59081 16.9955C5.98837 16.9955 5.5 16.5071 5.5 15.9047C5.5 15.3023 5.98837 14.8139 6.59081 14.8139C7.19324 14.8139 7.68161 15.3023 7.68161 15.9047Z" fill="white"></path>
</svg>