<svg class="header-nav-subicon_icon" xmlns="http://www.w3.org/2000/svg" fill="white">
  <path d="M3 9H7V17C7 18.1046 6.10457 19 5 19L5 19C3.89543 19 3 18.1046 3 17V9Z" fill="#F0B90B"></path>
      <path fill-rule="evenodd" clip-rule="evenodd" d="M22 3H9V18C9 19.1046 8.10457 20 7 20H18C20.2091 20 22 18.2091 22 16V3ZM18.75 9.25C18.75 11.0449 17.2949 12.5 15.5 12.5C13.7051 12.5 12.25 11.0449 12.25 9.25C12.25 7.45507 13.7051 6 15.5 6C17.2949 6 18.75 7.45507 18.75 9.25ZM18.75 14.5V17H12.25V14.5H18.75ZM14 9.25L15.5 7.75L17 9.25L15.5 10.75L14 9.25Z" fill="white"></path>
</svg>