<svg class="header-nav-subicon_icon" xmlns="http://www.w3.org/2000/svg" fill="white">
  <path d="M3 9H7V17C7 18.1046 6.10457 19 5 19L5 19C3.89543 19 3 18.1046 3 17V9Z" fill="#F0B90B"></path>
      <path fill-rule="evenodd" clip-rule="evenodd" d="M9 3H22V16C22 18.2091 20.2091 20 18 20H9H7C8.10457 20 9 19.1046 9 18V3ZM15.219 16.5H16.5415V15.3863C18.0844 15.1311 18.8037 14.1682 18.8037 13.0313C18.8037 11.848 18.0264 11.1868 16.4023 10.8155V8.88979C16.9591 9.0174 17.3304 9.27262 17.6088 9.58585L18.6645 8.63457C18.154 8.05452 17.4696 7.6949 16.5415 7.59049V6.5H15.219V7.59049C13.7225 7.7645 12.922 8.57657 12.922 9.79466C12.922 10.92 13.6297 11.6856 15.3698 12.0452V14.1334C14.7202 14.0406 14.1749 13.7274 13.7341 13.2633L12.69 14.2146C13.27 14.8527 14.0473 15.3283 15.219 15.4327V16.5ZM15.3698 10.5835C14.7782 10.4211 14.5229 10.1891 14.5229 9.74826C14.5229 9.29582 14.7782 8.9826 15.3698 8.86659V10.5835ZM16.4023 12.2773C17.0636 12.4745 17.2028 12.8225 17.2028 13.1589C17.2028 13.5998 16.9475 13.9594 16.4023 14.1102V12.2773Z" fill="white"></path>
</svg>