<svg class="header-nav-subicon_icon" xmlns="http://www.w3.org/2000/svg" fill="currentColor">
<path d="M5 10H2V21H5V10Z" fill="white"></path>
      <path d="M13.8663 14.2426C15.0379 15.4142 16.9374 15.4142 18.109 14.2426L13.8691 10H7V17C7 19.2091 8.79086 21 11 21H17.1323C19.8207 21 22.0002 18.8206 22.0002 16.1321L14.377 16.1313L11.5388 13.293L12.2278 12.6041L13.8663 14.2426Z" fill="white"></path>
      <path fill-rule="evenodd" clip-rule="evenodd" d="M15 2L12 5L17.5 10L23 5L20 2H15ZM17.5 6.75L19 5.25L17.5 3.75L16 5.25L17.5 6.75Z" fill="#F0B90B"></path>
</svg>