<svg class="header-nav-subicon_icon" xmlns="http://www.w3.org/2000/svg" fill="white">
<path d="M13.4849 15.5001L12 14.0151L10.5151 15.5001L12 16.985L13.4849 15.5001Z" fill="white"></path>
      <path fill-rule="evenodd" clip-rule="evenodd" d="M8.36859 6.48267H5.5V9.48267H8V10.7374C6.18652 12.0023 5 14.1039 5 16.4827V19.9805C5 20.5328 5.44772 20.9805 6 20.9805H18C18.5523 20.9805 19 20.5328 19 19.9805V16.4827C19 14.1039 17.8135 12.0023 16 10.7374V9.48267H18.5V6.48267H15.6314C14.9967 7.85282 13.6093 8.80322 12 8.80322C10.3907 8.80322 9.00331 7.85282 8.36859 6.48267ZM12 19C13.933 19 15.5 17.433 15.5 15.5C15.5 13.567 13.933 12 12 12C10.067 12 8.5 13.567 8.5 15.5C8.5 17.433 10.067 19 12 19Z" fill="white"></path>
      <path fill-rule="evenodd" clip-rule="evenodd" d="M12 7.30322C13.3807 7.30322 14.5 6.18393 14.5 4.80322C14.5 3.42251 13.3807 2.30322 12 2.30322C10.6193 2.30322 9.5 3.42251 9.5 4.80322C9.5 6.18393 10.6193 7.30322 12 7.30322ZM13.0607 4.80321L12 3.74255L10.9393 4.80321L12 5.86387L13.0607 4.80321Z" fill="#F0B90B"></path>
</svg>