<svg xmlns="http://www.w3.org/2000/svg" fill="white">
<path d="M68.7814 65.6297L65.7757 65.6297V87.4999L87.2465 87.5C91.4968 87.5 94.9423 84.0544 94.9423 79.8041V73.3256C94.9423 69.0753 91.4968 65.6298 87.2465 65.6298L84.1251 65.6297V61.8145C84.1251 57.5907 80.701 54.1667 76.4773 54.1667V57.9339C76.4773 62.1842 73.0317 65.6297 68.7814 65.6297Z" fill="#F0B90B"></path>
      <path fill-rule="evenodd" clip-rule="evenodd" d="M67.5608 55.9206C67.5609 57.0318 66.6613 57.9326 65.5515 57.9326L56.5441 57.9325V79.264H13.3999V65.8052C13.3999 56.0189 21.2898 48.0855 31.0631 48.0855L38.4162 48.0855C41.9256 48.0855 45.1969 49.1084 47.948 50.8728C49.9993 49.3634 52.5768 48.354 55.7919 48.1937C56.6225 48.0775 57.4856 48.0142 58.3778 48.0142L67.5604 48.014L67.5608 55.9206ZM31.0631 56.9453H38.4162C39.7985 56.9453 41.1068 57.2627 42.2724 57.8288C41.0634 60.2262 40.3824 62.936 40.3824 65.8052L40.3824 70.2351H22.215V65.8052C22.215 60.912 26.1765 56.9453 31.0631 56.9453Z" fill="white"></path>
      <path fill-rule="evenodd" clip-rule="evenodd" d="M34.8434 19.9909C28.5129 19.9909 23.381 25.1228 23.381 31.4533C23.381 37.7838 28.5129 42.9157 34.8434 42.9157C41.1739 42.9157 46.3058 37.7838 46.3058 31.4533C46.3058 25.1228 41.1739 19.9909 34.8434 19.9909ZM34.8434 28.3272C33.1169 28.3272 31.7173 29.7268 31.7173 31.4533C31.7173 33.1798 33.1169 34.5794 34.8434 34.5794C36.5699 34.5794 37.9695 33.1798 37.9695 31.4533C37.9695 29.7268 36.5699 28.3272 34.8434 28.3272ZM62.4313 19.9909C56.1008 19.9909 50.9689 25.1228 50.9689 31.4533C50.9689 37.7838 56.1008 42.9157 62.4313 42.9157C68.7618 42.9157 73.8937 37.7838 73.8937 31.4533C73.8937 25.1228 68.7618 19.9909 62.4313 19.9909Z" fill="white"></path>
</svg>