<svg class="header-nav-subicon_icon" xmlns="http://www.w3.org/2000/svg" fill="white">
<path d="M3.00021 12.0071C3.94566 10.3408 5.45157 9.0966 7.21542 8.46875C7.23625 10.3834 7.82737 12.2804 8.92346 13.6849C8.55476 13.9375 8.19509 14.2429 7.8492 14.6049L6.86765 15.4983L8.35602 16.9855L9.41727 15.946C11.4041 13.843 13.4887 14.847 14.2827 15.6119L8.92346 21.0002L3 21L3.00021 12.0071Z" fill="white"></path>
      <path fill-rule="evenodd" clip-rule="evenodd" d="M21 9C21 12.0932 18.6593 14.6398 15.6525 14.9649L15.1058 14.4383C14.4708 13.8265 13.383 13.1554 12.023 13.0243C11.5587 12.9796 11.0857 13.0003 10.6136 13.0939C9.61261 12.0218 9 10.5824 9 9C9 5.68629 11.6863 3 15 3C18.3137 3 21 5.68629 21 9ZM15 6.5L12.5 9L15 11.5L17.5 9L15 6.5Z" fill="#F0B90B"></path>
</svg>