<svg class="header-nav-subicon_icon" xmlns="http://www.w3.org/2000/svg" fill="white">
<path fill-rule="evenodd" clip-rule="evenodd" d="M7 11C5.34315 11 4 9.65685 4 8C4 6.34315 5.34315 5 7 5C8.65685 5 10 6.34315 10 8C10 9.65685 8.65685 11 7 11ZM7.00003 6.66666L5.6667 8L7.00003 9.33333L8.33337 8L7.00003 6.66666Z" fill="#F0B90B"></path>
      <path fill-rule="evenodd" clip-rule="evenodd" d="M16.3371 9.54698L20.9635 14.1734C21.1843 11.9528 20.3734 9.41267 18.6252 7.25888L20.4403 5.44379L18.6725 3.67602L16.8574 5.49111C14.7036 3.74287 12.1634 2.93193 9.94284 3.15275L14.5693 7.77921L5.94458 16.4039L7.71235 18.1717L16.3371 9.54698Z" fill="white"></path>
      <path d="M4.17614 17.464C3.44558 18.264 3 19.3287 3 20.4975V20.9999L7.71214 21L4.17614 17.464Z" fill="white"></path>
      <path d="M7.71214 21L15.2865 13.426C16.0392 14.2304 16.5 15.3114 16.5 16.5V17.4013C16.9413 17.146 17.4536 16.9999 18 16.9999C19.6569 16.9999 21 18.3431 21 19.9999V20.9999L7.71214 21Z" fill="white"></path>
</svg>