<svg xmlns="http://www.w3.org/2000/svg">
  <path d="M69.4668 53.4594C76.0368 53.088 81.25 47.6426 81.25 40.9796C81.25 34.0761 75.6536 28.4796 68.75 28.4796C68.0806 28.4796 67.4236 28.5322 66.7827 28.6336C69.3287 32.0887 70.8333 36.3585 70.8333 40.9796C70.8333 45.2677 69.5378 49.2533 67.3168 52.5662C68.0533 52.8246 68.7708 53.1232 69.4668 53.4594Z" fill="white"></path>
  <path d="M18.75 72.2296V79.1667H8.33333V72.2296C8.33333 65.3261 13.9298 59.7296 20.8333 59.7296H22.9151C20.2998 63.2116 18.75 67.5396 18.75 72.2296Z" fill="white"></path>
  <path d="M91.6667 79.1667H81.25V72.2296C81.25 67.5396 79.7002 63.2116 77.0849 59.7296H79.1667C86.0702 59.7296 91.6667 65.3261 91.6667 72.2296V79.1667Z" fill="white"></path>
  <path d="M29.1667 40.9796C29.1667 36.3585 30.6713 32.0887 33.2173 28.6336C32.5764 28.5322 31.9193 28.4796 31.25 28.4796C24.3464 28.4796 18.75 34.0761 18.75 40.9796C18.75 47.6426 23.9631 53.088 30.5331 53.4594C31.2292 53.1232 31.9467 52.8246 32.6832 52.5662C30.4622 49.2533 29.1667 45.2677 29.1667 40.9796Z" fill="white"></path>
  <path d="M27.0833 72.2296C27.0833 65.3261 32.6798 59.7296 39.5833 59.7296H60.4167C67.3202 59.7296 72.9167 65.3261 72.9167 72.2296V79.1667H27.0833V72.2296Z" fill="white"></path>
  <path d="M50 53.4796C56.9036 53.4796 62.5 47.8832 62.5 40.9796C62.5 34.0761 56.9036 28.4796 50 28.4796C43.0964 28.4796 37.5 34.0761 37.5 40.9796C37.5 47.8832 43.0964 53.4796 50 53.4796Z" fill="#F0B90B"></path>
</svg>