<svg class="header-nav-subicon_icon" xmlns="http://www.w3.org/2000/svg" fill="white">
<path fill-rule="evenodd" clip-rule="evenodd" d="M9.89658 1.87524L16.029 8.00769L11.231 12.8057L8.80596 10.3806L8.78002 10.4074C7.07479 12.1656 7.02167 15.0525 8.72798 16.8095C9.52621 17.6314 10.5546 18.0552 11.5901 18.0808H19.9849V21.0633H4.01538V18.0808H6.73253C6.69516 18.0442 6.65814 18.0071 6.62146 17.9693C4.28383 15.5622 4.62343 10.9389 6.94739 8.52204L5.09859 6.67324L6.45185 5.31998L5.04152 3.90965L7.16284 1.78833L8.57317 3.19866L9.89658 1.87524Z" fill="white"></path>
      <path fill-rule="evenodd" clip-rule="evenodd" d="M16.2773 10.9941C17.9342 10.9941 19.2773 12.3373 19.2773 13.9941C19.2773 15.651 17.9342 16.9941 16.2773 16.9941C14.6205 16.9941 13.2773 15.651 13.2773 13.9941C13.2773 12.3373 14.6205 10.9941 16.2773 10.9941Z" fill="#F0B90B"></path>
</svg>