<svg class="header-nav-subicon_icon" xmlns="http://www.w3.org/2000/svg" fill="white">
  <path fill-rule="evenodd" clip-rule="evenodd" d="M9 21C5.68629 21 3 18.3137 3 15C3 11.6863 5.68629 9 9 9C12.3137 9 15 11.6863 15 15C15 18.3137 12.3137 21 9 21ZM8.99994 12.3332L6.33327 14.9999L8.99994 17.6666L11.6666 14.9999L8.99994 12.3332Z" fill="white"></path>
      <path fill-rule="evenodd" clip-rule="evenodd" d="M16.9445 10.8889C14.766 10.8889 13 9.12292 13 6.94446C13 4.76599 14.766 3 16.9445 3C19.1229 3 20.8889 4.76599 20.8889 6.94446C20.8889 9.12292 19.1229 10.8889 16.9445 10.8889ZM16.9449 5.19165L15.1918 6.94474L16.9449 8.69783L18.698 6.94474L16.9449 5.19165Z" fill="#F0B90B"></path>
</svg>